<svg width="100" height="100" viewBox="0 0 100 100" fill="none" xmlns="http://www.w3.org/2000/svg">
<g clip-path="url(#clip0_12_31)">
<path d="M50 0C22.3857 0 0 22.3857 0 50C0 77.6143 22.3857 100 50 100C77.6143 100 100 77.6143 100 50C100 22.3857 77.6143 0 50 0ZM23.4295 25.1362H76.5673V74.8638H23.4295V25.1362ZM29.9804 31.6331V68.37H70.0197V31.6331H29.9804ZM34.3465 36.319H65.5458V52.6089H34.3465V36.319ZM34.3465 55.4331H43.1833V64.2698H34.3465V55.4331ZM45.5262 55.4331H54.366V64.2698H45.5262V55.4331ZM56.7059 55.4331H65.5458V64.2698H56.7059V55.4331Z" fill="#EAE8FF"/>
</g>
<defs>
<clipPath id="clip0_12_31">
<rect width="100" height="100" fill="white"/>
</clipPath>
</defs>
</svg>
