<svg width="100" height="100" viewBox="0 0 100 100" fill="none" xmlns="http://www.w3.org/2000/svg">
<path d="M48.668 64.1258C46.7562 67.1305 44.9221 70.0699 40.8121 72.9256C38.6137 74.4666 33.5535 77.4775 26.3609 77.4775C12.6385 77.4775 1.5625 67.501 1.5625 49.9611C1.5625 34.6318 11.9814 22.5225 26.6535 22.5225C32.5977 22.5225 37.8789 24.5773 41.7682 27.66C45.3646 30.5213 47.049 33.3834 48.5187 35.9521L38.2492 41.0836C37.5145 39.3988 36.6301 37.6365 34.36 35.7309C31.8631 33.7475 29.3717 33.1621 27.2389 33.1621C18.8754 33.1621 14.4725 40.9404 14.4725 49.5967C14.4725 60.9713 20.2732 66.6168 27.2389 66.6168C33.9895 66.6168 36.7076 61.9211 38.4643 58.9164L48.668 64.126V64.1258ZM84.6434 24.1355H98.4375L80.4615 75.9363H67.259L49.5043 24.1355H63.2982L74.0098 60.9715L84.6434 24.1355Z" fill="#EAE8FF"/>
</svg>
